
<svg xmlns="http://www.w3.org/2000/svg" width="960" height="404" viewBox="0 0 960 404"><defs><style>.a,.an,.as{fill:#f7f2f5}.a,.aq,.au,.aw,.bc,.be,.bi,.bo{stroke:#7f6371}.a,.ab,.ah,.ai,.aj,.al,.ap,.aq,.as,.at,.au,.av,.aw,.ay,.az,.bb,.bc,.bd,.be,.bf,.bg,.bh,.bi,.bj,.bk,.bl,.bm,.bo,.bt,.bw,.by,.bz,.ca,.cd,.cf,.h,.i,.j,.o,.s,.u,.x{stroke-linecap:round}.a,.ab,.ac,.ah,.ai,.aj,.al,.ap,.aq,.as,.at,.au,.av,.aw,.ay,.az,.bb,.bc,.bd,.be,.bf,.bg,.bh,.bi,.bj,.bk,.bl,.bm,.bo,.bt,.bw,.by,.bz,.ca,.cd,.cf,.h,.i,.j,.o,.s,.u,.x{stroke-linejoin:round}.a,.ab,.ac,.ah,.ai,.aj,.al,.aq,.aw,.az,.ba,.bb,.bc,.bd,.bf,.bg,.bh,.bi,.bj,.bl,.bm,.bo,.br,.bs,.bt,.bw,.by,.bz,.c,.ca,.cc,.cd,.cf,.e,.h,.i,.j,.o,.p,.s,.u,.x,.y{stroke-width:2px}.b{fill:#f6f5f6}.c{fill:#fff6db}.ah,.ai,.ba,.bd,.bt,.bw,.by,.c,.s,.u{stroke:#8e7c69}.ba,.br,.bs,.c,.cc,.e,.p,.y{stroke-miterlimit:10}.af,.ah,.al,.bq,.d,.i,.u{opacity:.2}.ah,.ai,.aj,.al,.ap,.aq,.at,.au,.av,.ay,.be,.bg,.bh,.bl,.bs,.cd,.cf,.e,.i,.j,.k,.o,.s,.x,.y{fill:none}.ab,.bm,.e,.i,.o,.p{stroke:#dba758}.f,.m,.p{fill:#dba758}.ak,.bu,.f{opacity:.1}.az,.cc,.g{fill:#ff7e6d}.af,.bu,.h{fill:#bf4e45}.az,.ca,.cc,.h,.x,.y{stroke:#bf4e45}.ap,.at,.j{stroke:#fff}.aw,.ba,.bd,.bm,.l{fill:#ffdb6d}.n{fill:#ffe9a6}.ai,.aj,.bp,.bv,.q,.w{opacity:.4}.ak,.bp,.bq,.br,.r,.u{fill:#8e7c69}.t{fill:#fff8e2}.v{fill:#ffa69a}.w,.z{fill:#d85750}.aa,.ab,.bt,.ca{fill:#fff7e0}.ac{fill:#553143;stroke:#553143}.ad{fill:#ffe698}.ae,.by{fill:#fffbee}.ag{fill:#ceb797}.aj,.al{stroke:#e5ccae}.am{fill:#e5ccae}.ao{clip-path:url(#a)}.ap{stroke-width:8px}.ar{clip-path:url(#b)}.as,.av,.ay{stroke:#e5e0e3}.as,.av{stroke-width:12px}.at{stroke-width:22px}.au{stroke-width:16px}.ax{clip-path:url(#c)}.ay{stroke-width:6px}.bb{fill:#27cba4}.bb,.bh,.bz{stroke:#189675}.bc,.bj,.bx{fill:#fff}.be{stroke-width:3px}.bf{fill:#56959e}.bf,.bg{stroke:#1a626e}.bi,.bk{fill:#d2c7cc}.bj,.bk,.bl{stroke:#d2c7cc}.bn{fill:#fff3ce}.bo{fill:#fefdfd}.br,.bs{stroke:#726051}.bv{fill:#ffb2a7}.bw{fill:#fff6e5}.bz{fill:#eafaf6}.cb{fill:#ff988b}.cd{stroke:#ffa69a}.ce{fill:#fff0c3}.cf{stroke:#d85750}</style><clipPath id="a"><rect class="a" x="255" y="4" width="504" height="336" rx="6" ry="6"/></clipPath><clipPath id="b"><path class="a" d="M240.333 324h529.334a5.333 5.333 0 0 1 5.333 5.333A10.667 10.667 0 0 1 764.333 340H245.667A10.667 10.667 0 0 1 235 329.333a5.333 5.333 0 0 1 5.333-5.333z"/></clipPath><clipPath id="c"><path class="a" d="M315 60h372a6 6 0 0 1 6 6v18H309V66a6 6 0 0 1 6-6z"/></clipPath></defs><title>introduction-960</title><path class="b" d="M952 392v-12H8v12a12 12 0 0 0 12 12h920a12 12 0 0 0 12-12z"/><path class="c" d="M876 26h64v312a2 2 0 0 1-2 2h-60a2 2 0 0 1-2-2V26z"/><g class="d"><path class="e" d="M887 38v8M891.2 38v8M895.4 38v8M899.6 38v8M903.8 38v8M908 38v8M912.2 38v8M916.4 38v8M920.6 38v8M924.8 38v8M929 38v8"/></g><path class="f" d="M877 27h62v2h-62z"/><path class="g" d="M878 6h60a2 2 0 0 1 2 2v18h-64V8a2 2 0 0 1 2-2z"/><path class="h" d="M896.308 16l-3.923-2v4l3.923-2zM888.462 16l-3.924-2v4l3.924-2z"/><path class="i" d="M890.346 114h35.308"/><path class="j" d="M890.346 116h35.308"/><path class="i" d="M890.346 188h35.308"/><path class="j" d="M890.346 190h35.308"/><path class="i" d="M890.346 262h35.308"/><path class="j" d="M890.346 264h35.308"/><path class="k" d="M892 62h32v32h-32z"/><path class="l" d="M893 93l20-2 7-17-8-8-17 7-2 20z"/><path class="d m" d="M894.702 89.815l17.999-1.8-2.475 1.843 7-17L920 74l-7 17-18 1.8-.298-2.985z"/><path class="n" d="M913.142 68.774l-17 7 1.843-2.475-1.7 17L893.3 90l1.7-17 17-7 1.142 2.774z"/><path class="o" d="M904 82l-11 11"/><circle class="p" cx="904" cy="82" r="2"/><path class="o" d="M893 93l20-2 7-17-8-8-17 7-2 20z"/><path class="m" d="M909.828 63.444l12.728 12.728L919.728 79 907 66.272z"/><path class="q n" d="M907 66.272l2.829-2.828 2.121 2.121-2.828 2.829z"/><path class="d r" d="M917.606 76.879l2.829-2.828 2.121 2.12-2.829 2.83z"/><path class="s" d="M909.828 63.444l12.728 12.728L919.728 79 907 66.272z"/><path class="t" d="M892 284h32v32h-32z"/><path class="l" d="M920 293h-16a3 3 0 0 0-3 3v16a3 3 0 0 0 3 3h16a3 3 0 0 0 3-3v-16a3 3 0 0 0-3-3zm-1 18h-14v-14h14z"/><path class="o" d="M920 293h-16a3 3 0 0 0-3 3v16a3 3 0 0 0 3 3h16a3 3 0 0 0 3-3v-16a3 3 0 0 0-3-3zm-1 18h-14v-14h14z"/><rect class="u" x="893" y="287" width="22" height="22" rx="3" ry="3"/><rect class="g" x="893" y="285" width="22" height="22" rx="3" ry="3"/><path class="v" d="M912 285h-16a3 3 0 0 0-3 3v3a3 3 0 0 1 3-3h16a3 3 0 0 1 3 3v-3a3 3 0 0 0-3-3z"/><path class="w" d="M912 304h-16a3 3 0 0 1-3-3v3a3 3 0 0 0 3 3h16a3 3 0 0 0 3-3v-3a3 3 0 0 1-3 3z"/><rect class="x" x="893" y="285" width="22" height="22" rx="3" ry="3"/><path class="v" d="M938 6h-60a2 2 0 0 0-2 2v3a2 2 0 0 1 2-2h60a2 2 0 0 1 2 2V8a2 2 0 0 0-2-2z"/><path class="y" d="M878 6h60a2 2 0 0 1 2 2v18h-64V8a2 2 0 0 1 2-2z"/><path class="t" d="M892 136h32v32h-32z"/><path class="g" d="M893 137l11.021 30L909 153l14-6.393L893 137z"/><path class="v" d="M893.083 140.177l.915-2.857 27.11 8.681-.914 2.857z"/><path class="x" d="M893 137l11.021 30L909 153l14-6.393L893 137z"/><path class="d z" d="M902.173 163.241l4-11.246A3.008 3.008 0 0 1 909 150h1a1.5 1.5 0 0 1 0 3h-1l-4 11.247a1.5 1.5 0 1 1-2.827-1.006z"/><path class="t" d="M892 210h32v32h-32z"/><path class="aa" d="M923 241l-9-3 6-6 3 9zM898 222l6-6 4 4-6 6z"/><path class="l" d="M902 226l6-6 12 12-6 6z"/><path class="ab" d="M923 241l-9-3 6-6 3 9z"/><path class="g" d="M893 217l6-6 5 5-6 6z"/><path class="ac" d="M921.999 237.997L923 241l-3.003-1.001 2.002-2.002z"/><path class="v" d="M896.878 213.121l2.122-2.12 5 5-2.122 2.12z"/><path class="d z" d="M893 217l2.122-2.121 5 5-2.122 2.12z"/><path class="ad" d="M905.88 222.123l2.121-2.122 12 12-2.122 2.12z"/><path class="ae" d="M901.879 218.121L904 216l4.001 4.002-2.12 2.12z"/><path class="o" d="M898 222l6-6 4 4-6 6z"/><path class="d m" d="M898 222l2.121-2.122 15.5 15.5-2.121 2.121z"/><path class="x" d="M893 217l6-6 5 5-6 6z"/><path class="o" d="M902 226l6-6 12 12-6 6z"/><path class="af" d="M877 23h62v2h-62z"/><rect class="ag" x="1" y="340" width="958" height="40" rx="4" ry="4"/><path class="ah" d="M3.097 349.363l217.922-6.934M2.726 369.341l165.323-3.96M3.644 377.299l219.375-10.87M731.019 357.354l226.981-11"/><path class="ai" d="M244.002 345.026l333 7.4M641.519 350.254l222.5-5.512"/><path class="aj" d="M169.543 374.683l80 4"/><path class="ah" d="M774.019 366.354l184.981 4M195.548 371.263l80 4M304.019 376.683l180-7M433.042 360.9l180 4M80.989 352.989l103.076 4.615"/><path class="ak" d="M937.892 379.791c-9.298-4.404-5.214-6.203-6.533-12.845-1.35-6.794-4.954-6.3-7.902-12.933-2.948-6.63-13.774-8.136-7.569-14.013h39.176a3.968 3.968 0 0 1 3.936 4v31.868a3.964 3.964 0 0 1-3.86 3.999c-6.142.11-16.526.266-17.248-.076zM22.47 379.791c9.448-4.404 5.298-6.203 6.639-12.845 1.371-6.794 5.035-6.3 8.03-12.933 2.997-6.63 10.766-8.136 4.46-14.013H5a4 4 0 0 0-4 4v31.868a3.994 3.994 0 0 0 3.923 3.999c6.242.11 16.812.266 17.547-.076z"/><path class="al" d="M78.509 376.596l90-2"/><path class="aj" d="M2.022 351.375l221.47-3.708M156.008 353.309l222.469-3.707M397 358.053l222.469-3.708M383.007 376.188l222.469-5.708M615.987 347.002l185.438-4.758M731.284 378.062L959 372.354M720.265 360.007L958 354.299"/><path class="al" d="M1.979 364.81l156.076-1.142"/><path class="am" d="M1 344a3.996 3.996 0 0 1 4-3.996l950.005.996a3.997 3.997 0 0 1 3.995 4z"/><path class="am" d="M78.352 342.227c.92.285 2.07.611 3.463.981 32.18 8.544 38.212 4.63 76.041 5.889 29.92.995 30.46-1.411 60.467-1.161s-69.993.231-39.986.481c30.002.25 30.165-3.273 60.167-3.023 28.965.241 29.21 3.461 55.182.568l-9.414-3.597z"/><path class="s" d="M5.003 340h949.994a4.003 4.003 0 0 1 4.003 4.003V376a4 4 0 0 1-4 4H5a4 4 0 0 1-4-4v-31.997A4.003 4.003 0 0 1 5.003 340z"/><path class="ai" d="M81.998 379.675l79.666-2.333"/><path class="ah" d="M138.07 369.236l168-4M138.04 377.283l223-11"/><path class="aj" d="M307.565 374.683L488 377"/><path class="ah" d="M333.569 370.334l180 4M219.01 352.989l203.076 4.615"/><path class="al" d="M216.53 376.596l90-2"/><path class="aj" d="M139.043 351.229l222.47-3.707"/><path class="al" d="M139 364.665l157.076-1.142"/><path class="ai" d="M220.019 379.675l79.666-2.333"/><path class="ah" d="M408.059 348.354l321-7M408.089 368.307l168-4M408.059 376.354l223-11"/><path class="aj" d="M577.584 373.754l180 4"/><path class="ah" d="M603.588 370.334l180 4M489.029 352.06l203.076 4.615"/><path class="al" d="M486.549 375.667l90-2"/><path class="aj" d="M409.062 350.301l222.47-3.708"/><path class="al" d="M409.019 363.736l157.076-1.142"/><path class="ai" d="M490.038 378.746l79.666-2.333"/><path class="ah" d="M671.146 348.354l243.508-7"/><path class="aj" d="M799.746 373.754l139.78 4"/><path class="al" d="M730.688 375.667l68.273-2"/><g><rect class="an" x="255" y="4" width="504" height="336" rx="6" ry="6"/><path class="ao ap" d="M255 10a5.954 5.954 0 0 1 5.906-6h492.188A5.954 5.954 0 0 1 759 10"/><rect class="aq" x="255" y="4" width="504" height="336" rx="6" ry="6"/><g><path class="an" d="M240.333 324h529.334a5.333 5.333 0 0 1 5.333 5.333A10.667 10.667 0 0 1 764.333 340H245.667A10.667 10.667 0 0 1 235 329.333a5.333 5.333 0 0 1 5.333-5.333z"/><g class="ar"><path class="as" d="M783 332c0 4.418-13.277 8-19.857 8H246.857c-6.58 0-19.857-3.582-19.857-8"/><path class="ap" d="M235 328c0-2.21 2.667-4 5.956-4h528.088c3.29 0 5.956 1.79 5.956 4"/><path class="at" d="M473 324h64"/><path class="au" d="M473 324h64"/><path class="av" d="M473 324h64"/></g><path class="aq" d="M240.333 324h529.334a5.333 5.333 0 0 1 5.333 5.333A10.667 10.667 0 0 1 764.333 340H245.667A10.667 10.667 0 0 1 235 329.333a5.333 5.333 0 0 1 5.333-5.333z"/></g><g><path class="aw" d="M271 20h472v304H271z"/><path class="an" d="M315 60h372a6 6 0 0 1 6 6v18H309V66a6 6 0 0 1 6-6z"/><g class="ax"><path class="ap" d="M309 66a5.94 5.94 0 0 1 5.878-6h372.244A5.94 5.94 0 0 1 693 66"/><path class="ay" d="M693 84H309"/></g><path class="aq" d="M315 60h372a6 6 0 0 1 6 6v18H309V66a6 6 0 0 1 6-6z"/><circle class="az" cx="322" cy="72" r="4"/><circle class="ba" cx="336" cy="72" r="4"/><circle class="bb" cx="350" cy="72" r="4"/><path class="bc" d="M333.231 84h312v208h-312z"/><path class="a" d="M309 84h24v208h-18a6 6 0 0 1-6-6V84zM645 84h48v202a6 6 0 0 1-6 6h-42V84z"/><path class="bd" d="M320 271h6v6h-6z"/><path class="az" d="M316 267h6v6h-6z"/><path class="be" d="M324.462 251.192l-5.885-6"/><circle class="bc" cx="319" cy="246" r="4"/><path class="bf" d="M317 219h8v7h-8z"/><path class="bg" d="M317 218c0-5.333 8-5.333 8 0"/><path class="az" d="M326 96.333L316 93l3.333 10 3.334-3.333L326 96.333z"/><path class="bb" d="M317 191h8v7h-8z"/><path class="bd" d="M316 142h10v8h-10z"/><circle class="az" cx="321" cy="171" r="4"/><path class="aq" d="M309.75 110h22.558M309.75 134h22.558M309.75 159h22.558M309.75 183h22.558M309.75 206h22.558M309.75 235h22.558M309.5 259h23"/><path class="bb" d="M319 118h4l2 4-4 6-4-6 2-4zM317 116h8v2h-8z"/><path class="bh" d="M321 128v-6"/><path class="bi" d="M645 84h48v8h-48z"/><path class="aq" d="M650 88h16"/><path class="bi" d="M645 132h48v8h-48z"/><path class="aq" d="M650 136h16"/><path class="bi" d="M645 196h48v8h-48z"/><path class="aq" d="M650 200h16"/><path class="bj" d="M653 148h16v8h-16zM669 148h16v8h-16zM653 164h16v8h-16zM669 164h16v8h-16zM653 228h16v8h-16zM669 228h16v8h-16zM653 244h16v8h-16zM669 244h16v8h-16zM653 180h16v8h-16zM669 180h16v8h-16z"/><g><path class="bj" d="M653 100h32v8h-32zM677 100v8"/><path class="bk" d="M682.195 103.293l-1.387 1.414-1.387-1.414h2.774z"/></g><g><path class="bj" d="M653 116h32v8h-32zM677 116v8"/><path class="bk" d="M682.195 119.293l-1.387 1.414-1.387-1.414h2.774z"/></g><g><path class="bj" d="M653 212h32v8h-32zM677 212v8"/><path class="bk" d="M682.195 215.293l-1.387 1.414-1.387-1.414h2.774z"/></g><path class="bj" d="M419 224h156v36H419z"/><g><path class="bj" d="M419 152h156v72H419z"/><path class="bj" d="M510 152h65v72h-65z"/><path class="bj" d="M510 196h65v28h-65z"/><path class="bj" d="M551 196h24v28h-24z"/><path class="bj" d="M551 212h24v12h-24z"/><path class="bj" d="M563 212h12v12h-12z"/></g><path class="bl" d="M431 207h24M431 212h14"/><path class="bm" d="M419 104h156v48H419z"/><g><path class="bn" d="M453.738 130.815c-2.591-.877-3.778-2.543-3.778-7.26 0-2.278-1.598-2.222-1.598-2.222l-.005.002a1.115 1.115 0 0 0-.53-.862 14.267 14.267 0 0 0-3.48-.473c-.412 0-.4.351-.221.946.095.313.406 1.276 1.184 1.276.595.419 0 1.099 0 1.099l-2.324.53-.727 1.186-4.213 1.49a3.034 3.034 0 0 0 1.407 2.302c1.355.825 4.84.8 4.84.8a7.667 7.667 0 0 1 .727 6.371 14.199 14.199 0 0 1 8.718-5.185z"/><path class="s" d="M453.738 130.815c-2.591-.877-3.778-2.543-3.778-7.26 0-2.278-1.598-2.222-1.598-2.222M446.201 121.987a1.774 1.774 0 0 0 .523-.487"/><path class="s" d="M448.394 121.5c-.084-.498-.245-.892-.568-1.027a14.266 14.266 0 0 0-3.479-.473c-.412 0-.4.351-.221.946.095.313.406 1.276 1.184 1.276a1.701 1.701 0 0 0 .891-.235"/><path class="s" d="M445.02 136a7.668 7.668 0 0 0-.727-6.37s-3.485.024-4.84-.801a3.035 3.035 0 0 1-1.407-2.302l4.213-1.49.727-1.185 2.324-.531s.595-.68 0-1.099"/></g><path class="s" d="M459 125h24M459 130h14M459 130h14"/><path class="bo" d="M271 20h472v16H271z"/><g><path class="aq" d="M279 28h28M325 28h7M340 28h7M355 28h9M371 28h8M387 28h9M404 28h10"/><g><path class="aq" d="M723 25h11M723 28h8M723 31h11"/></g><g><circle class="aq" cx="706" cy="27" r="2" transform="rotate(-45 706 27)"/><path class="aq" d="M707.414 28.414l2.829 2.829"/></g><path class="aq" d="M692 28h-29"/></g></g></g><path class="am" d="M366.622 342.264c1.72.285 3.867.61 6.472.98 60.149 8.545 71.423 4.631 142.13 5.89 55.926.994 56.935-1.412 113.02-1.162s56.088.232 112.174.482c56.078.25 56.382-3.274 112.46-3.024 53 .237 52.494 3.155 98.122.57.98-.055 2.98-.94 4-1l1-2-1-1z"/><path class="aj" d="M671.907 350.301l168.763-3.708"/><path class="al" d="M671.874 363.736l119.157-1.142"/><g class="d"><path class="r" d="M165.023 341.283l34.183 5.568c24.993 2.064 35.206 1.158 72.903 1.45"/></g><path class="bp" d="M111.648 374.184c56.149-2.025-21.023-1.135 63.667-1.423 86.628-.294 80.335-1.079 164.9-1.72 84.552-.643 208.531 6.607 283.47 7.959h-576s57.967-4.6 63.963-4.816z"/><path class="bq" d="M139.164 357.808c80.303-2.064 13.118-1.158 134.239-1.45 123.894-.3 114.894-1.1 235.836-1.754 120.926-.655 367.16-9.306 405.414 8.112 33.22 15.125-102.932 1.977-149.868 0-204.094-8.597-716.386 14.582-717.101 0-1.121-22.876 82.904-4.688 91.48-4.908z"/><g><path class="q r" d="M27.317 363.916c-5.534.754-8.227 2.626-10.341-2.543-1.638-4.004 1.335-5.333 5.622-5.917 5.534-.754 6.225-1.09 10.05 2.98 2.499 2.66-1.045 4.896-5.331 5.48z"/><circle class="br" cx="24.987" cy="360.317" r="4"/><path class="bs" d="M20.987 360.317h8"/></g><path class="ak" d="M778 180v160h126V188a8 8 0 0 0-8-8z"/><path class="bt" d="M880 340H756a16 16 0 0 1-16-16V192h156v132a16 16 0 0 1-16 16z"/><path class="f" d="M756 192h-16v132a15.848 15.848 0 0 0 15.692 16H884l6.49-3.245a5.064 5.064 0 0 0 2.265-2.265L896 328H764a8 8 0 0 1-8-8z"/><rect class="g" x="733.385" y="180" width="168.692" height="12" rx="6" ry="6"/><path class="bu" d="M758.885 192h-19.616a5.943 5.943 0 0 1-5.884-6 5.943 5.943 0 0 1 5.884-6h19.616z"/><path class="bv" d="M855 180h11.769v12H855z"/><path class="s" d="M816 223v43a41 41 0 0 1-41 41 41 41 0 0 1-41-41v-47"/><path class="bd" d="M763 300h24v8h-24z"/><path class="bu" d="M896.192 192H880.5v-12h15.692a5.943 5.943 0 0 1 5.885 6 5.943 5.943 0 0 1-5.885 6z"/><circle class="bw" cx="815" cy="219" r="7"/><path class="f" d="M768.692 192h5.885v97.058a2.942 2.942 0 0 1-2.942 2.942 2.942 2.942 0 0 1-2.943-2.942V192z"/><path class="bx" d="M860.885 192h5.884v97.058a2.942 2.942 0 0 1-2.942 2.942 2.942 2.942 0 0 1-2.942-2.942V192z"/><rect class="y" x="733.385" y="180" width="168.692" height="12" rx="6" ry="6"/><path class="bw" d="M739 226a7 7 0 0 1 0-14h1v14z"/><g><rect class="bd" x="12" y="320" width="160" height="20" rx="2" ry="2"/><path class="by" d="M76 320h60v20H76zM60 320h8v20h-8z"/></g><g><rect class="bb" x="42" y="304" width="112" height="16" rx="2" ry="2"/><path class="bz" d="M88 304h48v16H88z"/></g><path class="az" d="M105 224h108a4 4 0 0 1 4 4v104a8 8 0 0 1-8 8H109a8 8 0 0 1-8-8V228a4 4 0 0 1 4-4z"/><path class="ca" d="M101 248h116v72H101z"/><path class="f" d="M102 249h11v70h-11z"/><path class="ak" d="M98 268v71h46v-63a8 8 0 0 0-8-8z"/><path class="af" d="M101 320v12a7.924 7.924 0 0 0 7.846 8h98.539c4.333 0 9.615-3.582 9.615-8h-98.346a5.943 5.943 0 0 1-5.885-6v-6z"/><path class="cb" d="M201 225h4v22h-4z"/><path class="af" d="M125 224h3.923v24H125zM113 224h-8a4 4 0 0 0-4 4v20h12z"/><path class="f" d="M125.077 248H129v52.038a1.962 1.962 0 0 1-1.962 1.962 1.962 1.962 0 0 1-1.961-1.962V248z"/><path class="bx" d="M201 249h4v52.038a1.962 1.962 0 0 1-1.962 1.962h-.076a1.962 1.962 0 0 1-1.962-1.962V249z"/><g><path class="cc" d="M217 324a44 44 0 0 0 0-88v19.473a24.527 24.527 0 0 1 0 49.054z"/><path class="cd" d="M221 240.198A40.058 40.058 0 0 1 257 280"/><path class="af" d="M234.863 296.808a24.459 24.459 0 0 1-17.863 7.72V324a43.868 43.868 0 0 0 31.473-13.252z"/></g><g><path class="q r" d="M940.225 362.13c-2.468 5.079-2.34 4.656-7.875 3.537-4.286-.868-7.062-1.963-5.15-5.896 2.467-5.078 5.113-5.397 10.706-6.173 3.918-.544 4.23 4.6 2.32 8.532z"/><circle class="br" cx="934.987" cy="360.538" r="4"/><path class="bs" d="M932 360.538h6"/></g><g><rect class="g" x="66" y="268" width="72" height="72" rx="4" ry="4"/><path class="cb" d="M134 268H70a4.012 4.012 0 0 0-4 4v4a4.012 4.012 0 0 1 4-4h64a4.012 4.012 0 0 1 4 4v-4a4.012 4.012 0 0 0-4-4z"/><path class="af" d="M134 340H70a4.012 4.012 0 0 1-4-4v-4a4.012 4.012 0 0 0 4 4h64a4.012 4.012 0 0 0 4-4v4a4.012 4.012 0 0 1-4 4z"/><path class="ce" d="M100.809 314.846h-9.755l-1.54 4.92H81l11.038-30.377h7.787l10.995 30.377h-8.47zm-2.096-6.803l-2.738-8.77h-.086l-2.738 8.77zM112.23 292.298a4.15 4.15 0 0 1 4.406-4.064 4.115 4.115 0 1 1 0 8.215 4.166 4.166 0 0 1-4.407-4.15zm.556 6.504h7.658v20.964h-7.658z"/><path class="ae" d="M92.038 289.389h7.787v3h-7.787zM112.23 292.298a3.918 3.918 0 0 1 1.325-2.954 4.831 4.831 0 0 1 6.145-.012 3.924 3.924 0 0 1 1.3 2.966h-3a.908.908 0 0 0-.3-.731 1.606 1.606 0 0 0-1.068-.332 1.642 1.642 0 0 0-1.085.352.9.9 0 0 0-.318.711zM112.786 298.802h7.658v3h-7.658zM93.15 308.043h5.563a1.5 1.5 0 1 1 0 3H93.15a1.5 1.5 0 0 1 0-3z"/><path class="cf" d="M100.809 314.846h-9.755l-1.54 4.92H81l11.038-30.377h7.787l10.995 30.377h-8.47zm-2.096-6.803l-2.738-8.77h-.086l-2.738 8.77zM112.23 292.298a4.15 4.15 0 0 1 4.406-4.064 4.115 4.115 0 1 1 0 8.215 4.166 4.166 0 0 1-4.407-4.15zm.556 6.504h7.658v20.964h-7.658z"/><rect class="cf" x="66" y="268" width="72" height="72" rx="4" ry="4"/></g></svg>